<svg version="1.1" id="Layer_1" xmlns="http://www.w3.org/2000/svg" xmlns:xlink="http://www.w3.org/1999/xlink" x="0px" y="0px"
	 width="100%" viewBox="0 0 100 100" enable-background="new 0 0 100 100" xml:space="preserve">
<path fill="#0C0C0B" opacity="1.000000" stroke="none" 
	d="
M1.000000,86.000000 
	C1.000000,62.979103 1.000000,39.958210 1.326020,16.337700 
	C4.030192,7.974259 9.691915,3.629884 17.000000,1.000000 
	C39.354229,1.000000 61.708454,1.000000 84.680222,1.330255 
	C93.953430,3.271166 98.044937,9.553924 101.000000,17.000000 
	C101.000000,39.687561 101.000000,62.375122 100.673294,85.660492 
	C97.978279,94.032143 92.225304,98.282448 85.000000,101.000000 
	C62.312439,101.000000 39.624878,101.000000 16.332018,100.676941 
	C8.240996,98.212997 4.285913,92.449776 1.000000,86.000000 
M22.857471,54.396137 
	C21.078039,54.396137 19.298607,54.396137 17.073458,54.396137 
	C17.205278,57.011196 17.108850,58.997852 17.440390,60.910316 
	C18.279778,65.752281 21.325338,68.092155 26.202890,67.893341 
	C30.830320,67.704720 33.355507,65.270073 34.026829,60.460327 
	C34.743534,55.325466 33.544960,50.916035 29.477583,47.440556 
	C27.964048,46.147274 26.379644,44.822811 25.274103,43.207035 
	C24.559206,42.162197 24.654482,40.563023 24.386705,39.212257 
	C24.881516,38.945164 25.376326,38.678066 25.871136,38.410969 
	C26.942892,43.749207 30.221745,43.201462 33.849052,42.252090 
	C34.039997,37.975803 33.313606,33.847488 28.767139,33.117523 
	C25.738533,32.631256 21.473408,33.270859 19.359808,35.177822 
	C16.057770,38.157040 16.299896,42.816311 18.889648,46.640186 
	C20.549751,49.091393 22.796106,51.145554 24.209339,53.816696 
	C24.030081,53.976135 23.850824,54.135574 22.857471,54.396137 
M63.884682,52.079273 
	C64.210495,52.039536 64.537453,52.024067 65.050911,52.908749 
	C65.046661,54.400024 64.960815,55.896286 65.051544,57.381763 
	C65.597282,66.317230 67.321037,68.218826 73.796852,66.903641 
	C74.834862,60.946571 75.883667,54.927555 76.932472,48.908539 
	C77.293625,48.965164 77.654785,49.021786 78.015938,49.078411 
	C78.015938,55.035358 78.015938,60.992306 78.015938,67.067932 
	C80.784477,67.761803 83.849281,68.350937 83.965477,64.818405 
	C84.313286,54.244152 84.090561,43.651138 84.090561,33.154480 
	C80.127716,33.154480 76.882057,33.154480 73.497757,33.154480 
	C72.578613,39.351490 71.706505,45.231445 70.834396,51.111397 
	C70.646271,51.103958 70.458145,51.096519 70.270020,51.089081 
	C69.382004,45.081329 68.493988,39.073574 67.617340,33.142723 
	C63.881119,33.142723 60.642258,33.142723 57.326385,33.142723 
	C57.326385,44.714493 57.326385,55.944210 57.326385,67.261223 
	C58.930241,67.438698 60.241474,67.583786 62.156551,67.891922 
	C62.551949,67.298042 62.947346,66.704155 63.275146,65.170761 
	C63.314522,60.806915 63.353893,56.443073 63.884682,52.079273 
M37.019161,65.135139 
	C38.695007,66.049103 40.334949,67.644485 42.054176,67.735069 
	C45.625946,67.923264 49.239754,67.313538 53.186245,67.004379 
	C53.265823,62.322018 48.565281,56.877476 55.551544,52.384464 
	C53.115940,50.635002 51.360134,49.373825 49.615955,48.121006 
	C52.051807,44.922855 54.051857,40.992577 49.811626,37.955616 
	C47.856319,36.555172 44.074055,36.592827 41.550674,37.372238 
	C38.190670,38.410065 38.150928,41.745510 38.694592,44.963108 
	C39.015850,46.864452 39.519043,49.428455 38.588467,50.721481 
	C35.450409,55.081791 35.128948,59.535370 37.019161,65.135139 
M54.562119,23.015709 
	C55.956493,21.411993 57.350868,19.808275 58.987385,17.926067 
	C56.258034,14.911283 53.684475,12.068581 50.950592,9.048789 
	C47.976738,12.391665 45.494507,15.181906 42.968540,18.021315 
	C45.867134,21.244795 48.359741,24.016779 50.982613,26.933632 
	C52.325279,25.463423 53.213390,24.490948 54.562119,23.015709 
M27.519596,78.975708 
	C23.464592,78.975708 19.409588,78.975708 15.354585,78.975708 
	C15.392236,79.468872 15.429887,79.962044 15.467538,80.455208 
	C39.159843,80.455208 62.852150,80.455208 86.544456,80.455208 
	C86.546661,79.962036 86.548866,79.468864 86.551064,78.975693 
	C67.205528,78.975693 47.859997,78.975693 27.519596,78.975708 
z"/>
<path fill="#F5F5F5" opacity="1.000000" stroke="none" 
	d="
M101.000000,16.528801 
	C98.044937,9.553924 93.953430,3.271166 85.148880,1.330255 
	C90.258430,1.000000 95.516861,1.000000 101.000000,1.000000 
	C101.000000,6.017719 101.000000,11.037662 101.000000,16.528801 
z"/>
<path fill="#F6F6F6" opacity="1.000000" stroke="none" 
	d="
M16.528801,1.000000 
	C9.691915,3.629884 4.030192,7.974259 1.326020,15.869041 
	C1.000000,11.072524 1.000000,6.145047 1.000000,1.000000 
	C6.017815,1.000000 11.037709,1.000000 16.528801,1.000000 
z"/>
<path fill="#F4F4F4" opacity="1.000000" stroke="none" 
	d="
M85.471199,101.000000 
	C92.225304,98.282448 97.978279,94.032143 100.673294,86.129150 
	C101.000000,90.927475 101.000000,95.854950 101.000000,101.000000 
	C95.982185,101.000000 90.962296,101.000000 85.471199,101.000000 
z"/>
<path fill="#F5F5F5" opacity="1.000000" stroke="none" 
	d="
M1.000000,86.472664 
	C4.285913,92.449776 8.240996,98.212997 15.863360,100.676941 
	C11.075480,101.000000 6.150958,101.000000 1.000000,101.000000 
	C1.000000,96.316681 1.000000,91.631004 1.000000,86.472664 
z"/>
<path fill="#C6A54B" opacity="1.000000" stroke="none" 
	d="
M61.552711,67.728882 
	C60.241474,67.583786 58.930241,67.438698 57.326385,67.261223 
	C57.326385,55.944210 57.326385,44.714493 57.326385,33.142723 
	C60.642258,33.142723 63.881119,33.142723 67.617340,33.142723 
	C68.493988,39.073574 69.382004,45.081329 70.270020,51.089081 
	C70.458145,51.096519 70.646271,51.103958 70.834396,51.111397 
	C71.706505,45.231445 72.578613,39.351490 73.497757,33.154480 
	C76.882057,33.154480 80.127716,33.154480 84.090561,33.154480 
	C84.090561,43.651138 84.313286,54.244152 83.965477,64.818405 
	C83.849281,68.350937 80.784477,67.761803 78.015938,67.067932 
	C78.015938,60.992306 78.015938,55.035358 78.015938,49.078411 
	C77.654785,49.021786 77.293625,48.965164 76.932472,48.908539 
	C75.883667,54.927555 74.834862,60.946571 73.796852,66.903641 
	C67.321037,68.218826 65.597282,66.317230 65.051544,57.381763 
	C64.960815,55.896286 65.046661,54.400024 64.990051,52.121239 
	C64.454712,50.213642 63.980225,49.093559 62.972588,46.714912 
	C63.182590,49.392742 63.287933,50.735985 63.393272,52.079227 
	C63.353893,56.443073 63.314522,60.806915 62.994236,65.698914 
	C62.326454,66.727669 61.939583,67.228271 61.552711,67.728882 
z"/>
<path fill="#C1A249" opacity="1.000000" stroke="none" 
	d="
M24.779659,53.377701 
	C22.796106,51.145554 20.549751,49.091393 18.889648,46.640186 
	C16.299896,42.816311 16.057770,38.157040 19.359808,35.177822 
	C21.473408,33.270859 25.738533,32.631256 28.767139,33.117523 
	C33.313606,33.847488 34.039997,37.975803 33.849052,42.252090 
	C30.221745,43.201462 26.942892,43.749207 25.871136,38.410969 
	C25.376326,38.678066 24.881516,38.945164 24.386705,39.212257 
	C24.654482,40.563023 24.559206,42.162197 25.274103,43.207035 
	C26.379644,44.822811 27.964048,46.147274 29.477583,47.440556 
	C33.544960,50.916035 34.743534,55.325466 34.026829,60.460327 
	C33.355507,65.270073 30.830320,67.704720 26.202890,67.893341 
	C21.325338,68.092155 18.279778,65.752281 17.440390,60.910316 
	C17.108850,58.997852 17.205278,57.011196 17.073458,54.396137 
	C19.298607,54.396137 21.078039,54.396137 23.389484,54.737213 
	C24.262365,57.131603 24.603233,59.184921 24.944101,61.238235 
	C25.832150,60.974110 26.720200,60.709980 27.608248,60.445854 
	C26.665384,58.089802 25.722523,55.733753 24.779659,53.377701 
z"/>
<path fill="#C2A24A" opacity="1.000000" stroke="none" 
	d="
M36.825928,64.768448 
	C35.128948,59.535370 35.450409,55.081791 38.588467,50.721481 
	C39.519043,49.428455 39.015850,46.864452 38.694592,44.963108 
	C38.150928,41.745510 38.190670,38.410065 41.550674,37.372238 
	C44.074055,36.592827 47.856319,36.555172 49.811626,37.955616 
	C54.051857,40.992577 52.051807,44.922855 49.615955,48.121006 
	C51.360134,49.373825 53.115940,50.635002 55.551544,52.384464 
	C48.565281,56.877476 53.265823,62.322018 53.186245,67.004379 
	C49.239754,67.313538 45.625946,67.923264 42.054176,67.735069 
	C40.334949,67.644485 38.695007,66.049103 36.825928,64.768448 
z"/>
<path fill="#C3A34A" opacity="1.000000" stroke="none" 
	d="
M54.331810,23.267090 
	C53.213390,24.490948 52.325279,25.463423 50.982613,26.933632 
	C48.359741,24.016779 45.867134,21.244795 42.968540,18.021315 
	C45.494507,15.181906 47.976738,12.391665 50.950592,9.048789 
	C53.684475,12.068581 56.258034,14.911283 58.987385,17.926067 
	C57.350868,19.808275 55.956493,21.411993 54.331810,23.267090 
z"/>
<path fill="#C1A149" opacity="1.000000" stroke="none" 
	d="
M28.017029,78.975700 
	C47.859997,78.975693 67.205528,78.975693 86.551064,78.975693 
	C86.548866,79.468864 86.546661,79.962036 86.544456,80.455208 
	C62.852150,80.455208 39.159843,80.455208 15.467538,80.455208 
	C15.429887,79.962044 15.392236,79.468872 15.354585,78.975708 
	C19.409588,78.975708 23.464592,78.975708 28.017029,78.975700 
z"/>
<path fill="#2E2816" opacity="1.000000" stroke="none" 
	d="
M63.638977,52.079250 
	C63.287933,50.735985 63.182590,49.392742 62.972588,46.714912 
	C63.980225,49.093559 64.454712,50.213642 64.897377,51.683296 
	C64.537453,52.024067 64.210495,52.039536 63.638977,52.079250 
z"/>
<path fill="#2E2816" opacity="1.000000" stroke="none" 
	d="
M61.854630,67.810402 
	C61.939583,67.228271 62.326454,66.727669 63.028030,66.168671 
	C62.947346,66.704155 62.551949,67.298042 61.854630,67.810402 
z"/>
<path fill="#0C0C0B" opacity="1.000000" stroke="none" 
	d="
M24.494499,53.597198 
	C25.722523,55.733753 26.665384,58.089802 27.608248,60.445854 
	C26.720200,60.709980 25.832150,60.974110 24.944101,61.238235 
	C24.603233,59.184921 24.262365,57.131603 23.796532,54.686646 
	C23.850824,54.135574 24.030081,53.976135 24.494499,53.597198 
z"/>
</svg>